<svg xmlns="http://www.w3.org/2000/svg" viewBox="0 0 24 24"><defs><linearGradient id="g" x1="0" y1="1" x2="0" y2="0"><stop offset="0" stop-color="#932667"/><stop offset=".4" stop-color="#EB6A26"/><stop offset=".75" stop-color="#FCA50A"/><stop offset="1" stop-color="#FCFFA4"/></linearGradient></defs><rect width="24" height="24" rx="5" fill="#0A0807"/><path fill="url(#g)" d="M12 1.5C12.6 4.8 15.5 6.6 17.2 9.4C19.4 13 18.6 17.8 15 19.9C11.6 21.9 6.9 20.8 5.3 17.2C4.2 14.7 4.9 11.9 6.6 9.9C6.9 11.6 7.8 12.8 9.2 13.3C8.2 9.7 10.2 5.6 12 1.5Z"/><g fill="#0A0807" fill-opacity=".88"><rect x="9.1" y="16" width="1.6" height="2.6" rx=".3"/><rect x="11.2" y="14.2" width="1.6" height="4.4" rx=".3"/><rect x="13.3" y="15.3" width="1.6" height="3.3" rx=".3"/></g></svg>
